<svg id="Layer_1" height="512" viewBox="0 0 512 512" width="512" xmlns="http://www.w3.org/2000/svg" data-name="Layer 1"><path d="m501 131.01-34.83 5.06-15.58 31.56-15.57-31.56-34.83-5.06 25.2-24.57-5.95-34.69 31.15 16.38 31.16-16.38-5.95 34.69z" fill="#50dd5a"/><path d="m371.27 80.11-34.83 5.06-15.58 31.56-15.57-31.56-34.83-5.06 25.2-24.57-5.95-34.69 31.15 16.38 31.16-16.38-5.95 34.69z" fill="#50dd5a"/><path d="m241.54 80.11-34.83 5.06-15.57 31.56-15.58-31.56-34.83-5.06 25.2-24.57-5.95-34.69 31.16 16.38 31.15-16.38-5.95 34.69z" fill="#50dd5a"/><path d="m111.81 131.01-34.83 5.06-15.57 31.56-15.58-31.56-34.83-5.06 25.2-24.57-5.95-34.69 31.16 16.38 31.15-16.38-5.95 34.69z" fill="#50dd5a"/><path d="m470.74 276.41-214.74 214.74 97.41-214.74z" fill="#5ac5df"/><path d="m158.59 276.41 97.41 214.74-214.74-214.74z" fill="#5ac5df"/><path d="m353.41 276.41-97.41 214.74-97.41-214.74z" fill="#55d8d8"/><path d="m377.53 154.93-24.12 121.48-97.41-121.48z" fill="#55d8d8"/><path d="m256 154.93-97.41 121.48-24.12-121.48z" fill="#55d8d8"/><path d="m377.53 154.93 93.21 121.48h-117.33z" fill="#6addc7"/><path d="m256 154.93 97.41 121.48h-194.82z" fill="#6addc7"/><path d="m134.47 154.93 24.12 121.48h-117.33z" fill="#6addc7"/><path d="m81.26 276.41h-40l214.74 214.74-33.209-73.209z" fill="#88ced8"/><path d="m134.47 154.93-93.21 121.48h40l61.433-80.065z" fill="#a0eaea"/><g fill="#284268"><path d="m475.493 272.762.009-.007-93.202-121.477a6 6 0 0 0 -4.76-2.347h-243.075a6 6 0 0 0 -4.76 2.347l-93.205 121.477.009.007a5.945 5.945 0 0 0 .508 7.887l214.74 214.743a6 6 0 0 0 8.486 0l214.742-214.743a5.945 5.945 0 0 0 .508-7.887zm-105.267-111.831-20.195 101.674-81.531-101.674zm-29.321 109.476h-169.805l84.9-105.886zm-97.405-109.476-81.531 101.674-20.195-101.674zm-112.337 8.162 20.123 101.314h-97.862zm-75.42 113.314h98.983l82.174 181.155zm200.257 194.218-88.1-194.218h176.2zm19.1-13.063 82.172-181.155h98.983zm85.614-193.155 20.123-101.314 77.737 101.314z"/><path d="m139.866 86.045 31.709 4.608 14.18 28.734a6 6 0 0 0 10.761 0l14.184-28.734 31.709-4.608a6 6 0 0 0 3.325-10.234l-22.948-22.366 5.417-31.58a6 6 0 0 0 -8.703-6.325l-28.364 14.91-28.362-14.91a6 6 0 0 0 -8.705 6.325l5.416 31.58-22.944 22.366a6 6 0 0 0 3.325 10.234zm30.254-26.208a6 6 0 0 0 1.726-5.312l-3.9-22.707 20.393 10.721a5.994 5.994 0 0 0 5.584 0l20.393-10.721-3.9 22.707a6 6 0 0 0 1.725 5.312l16.5 16.081-22.8 3.313a6 6 0 0 0 -4.518 3.283l-10.2 20.66-10.2-20.66a6 6 0 0 0 -4.517-3.283l-22.8-3.313z"/><path d="m56.027 170.288a6 6 0 0 0 5.38 3.345 6 6 0 0 0 5.381-3.345l14.181-28.732 31.708-4.609a6 6 0 0 0 3.323-10.234l-22.942-22.365 5.417-31.581a6 6 0 0 0 -8.706-6.326l-28.362 14.912-28.361-14.912a6 6 0 0 0 -8.706 6.326l5.417 31.581-22.945 22.365a6 6 0 0 0 3.325 10.234l31.709 4.609zm-15.635-59.549a6 6 0 0 0 1.725-5.311l-3.894-22.707 20.392 10.72a5.994 5.994 0 0 0 5.584 0l20.393-10.72-3.892 22.707a6 6 0 0 0 1.726 5.311l16.5 16.081-22.8 3.314a6 6 0 0 0 -4.517 3.282l-10.2 20.659-10.2-20.659a6 6 0 0 0 -4.517-3.282l-22.8-3.314z"/><path d="m269.594 86.045 31.706 4.608 14.181 28.734a6 6 0 0 0 10.761 0l14.18-28.734 31.709-4.608a6 6 0 0 0 3.325-10.234l-22.941-22.366 5.416-31.58a6 6 0 0 0 -8.7-6.325l-28.367 14.91-28.364-14.91a6 6 0 0 0 -8.706 6.325l5.417 31.58-22.942 22.366a6 6 0 0 0 3.325 10.234zm30.255-26.208a6 6 0 0 0 1.725-5.312l-3.9-22.707 20.393 10.721a5.994 5.994 0 0 0 5.584 0l20.393-10.721-3.895 22.707a6 6 0 0 0 1.726 5.312l16.5 16.081-22.8 3.313a6 6 0 0 0 -4.517 3.283l-10.2 20.66-10.2-20.66a6 6 0 0 0 -4.518-3.283l-22.8-3.313z"/><path d="m482.243 104.348 5.417-31.581a6 6 0 0 0 -8.706-6.326l-28.361 14.912-28.362-14.912a6 6 0 0 0 -8.706 6.326l5.417 31.581-22.942 22.365a6 6 0 0 0 3.326 10.234l31.708 4.609 14.181 28.732a6 6 0 0 0 10.761 0l14.181-28.732 31.709-4.609a6 6 0 0 0 3.325-10.234zm-16.937 25.786a6 6 0 0 0 -4.517 3.282l-10.2 20.659-10.2-20.659a6 6 0 0 0 -4.517-3.282l-22.8-3.314 16.5-16.081a6 6 0 0 0 1.726-5.311l-3.895-22.707 20.397 10.72a5.994 5.994 0 0 0 5.584 0l20.392-10.72-3.894 22.707a6 6 0 0 0 1.725 5.311l16.5 16.081z"/></g></svg>