<?xml version="1.0" encoding="iso-8859-1"?>
<!-- Generator: Adobe Illustrator 19.0.0, SVG Export Plug-In . SVG Version: 6.00 Build 0)  -->
<svg version="1.1" id="Capa_1" xmlns="http://www.w3.org/2000/svg" xmlns:xlink="http://www.w3.org/1999/xlink" x="0px" y="0px"
	 viewBox="0 0 480 480" style="enable-background:new 0 0 480 480;" xml:space="preserve">
<path style="fill:#7FCAC9;" d="M8,112v320c0,22.091,17.909,40,40,40h424V152H48C25.909,152,8,134.091,8,112z"/>
<g>
	<g>
		<path id="SVGCleanerId_0" style="fill:#238892;" d="M48,176h32v16H48V176z"/>
	</g>
	<g>
		<path id="SVGCleanerId_1" style="fill:#238892;" d="M96,176h32v16H96V176z"/>
	</g>
	<g>
		<path id="SVGCleanerId_2" style="fill:#238892;" d="M144,176h32v16h-32V176z"/>
	</g>
	<g>
		<path id="SVGCleanerId_3" style="fill:#238892;" d="M192,176h32v16h-32V176z"/>
	</g>
	<g>
		<path id="SVGCleanerId_4" style="fill:#238892;" d="M240,176h32v16h-32V176z"/>
	</g>
	<g>
		<path id="SVGCleanerId_5" style="fill:#238892;" d="M288,176h32v16h-32V176z"/>
	</g>
	<g>
		<path id="SVGCleanerId_6" style="fill:#238892;" d="M336,176h32v16h-32V176z"/>
	</g>
	<g>
		<path id="SVGCleanerId_7" style="fill:#238892;" d="M384,176h32v16h-32V176z"/>
	</g>
	<g>
		<path id="SVGCleanerId_8" style="fill:#238892;" d="M48,432h32v16H48V432z"/>
	</g>
	<g>
		<path id="SVGCleanerId_9" style="fill:#238892;" d="M96,432h32v16H96V432z"/>
	</g>
	<g>
		<path id="SVGCleanerId_10" style="fill:#238892;" d="M144,432h32v16h-32V432z"/>
	</g>
	<g>
		<path id="SVGCleanerId_11" style="fill:#238892;" d="M192,432h32v16h-32V432z"/>
	</g>
	<g>
		<path id="SVGCleanerId_12" style="fill:#238892;" d="M240,432h32v16h-32V432z"/>
	</g>
	<g>
		<path id="SVGCleanerId_13" style="fill:#238892;" d="M288,432h32v16h-32V432z"/>
	</g>
	<g>
		<path id="SVGCleanerId_14" style="fill:#238892;" d="M336,432h32v16h-32V432z"/>
	</g>
	<g>
		<path id="SVGCleanerId_15" style="fill:#238892;" d="M384,432h32v16h-32V432z"/>
	</g>
	<g>
		<path id="SVGCleanerId_16" style="fill:#238892;" d="M432,176h16v32h-16V176z"/>
	</g>
	<g>
		<path id="SVGCleanerId_17" style="fill:#238892;" d="M432,224h16v32h-16V224z"/>
	</g>
	<g>
		<path id="SVGCleanerId_18" style="fill:#238892;" d="M432,272h16v32h-16V272z"/>
	</g>
	<g>
		<path id="SVGCleanerId_19" style="fill:#238892;" d="M432,320h16v32h-16V320z"/>
	</g>
	<g>
		<path id="SVGCleanerId_20" style="fill:#238892;" d="M432,368.008h16v32h-16V368.008z"/>
	</g>
	<g>
		<path id="SVGCleanerId_21" style="fill:#238892;" d="M432,416.008h16v32h-16V416.008z"/>
	</g>
</g>
<circle style="fill:#FCF05A;" cx="240" cy="312" r="96"/>
<g>
	<path style="fill:#238892;" d="M48,72C25.909,72,8,89.909,8,112s17.909,40,40,40h56V72H48z"/>
	<path style="fill:#238892;" d="M408,72v80h64v-40V72H408z"/>
</g>
<path style="fill:#C8D952;" d="M136,40V8h272v144h-32V40H136z"/>
<path style="fill:#F49E21;" d="M280,272v-16h-32v-16h-16v16h-32v64h64v32h-64v16h32v16h16v-16h32v-64h-64v-32H280z"/>
<path style="fill:#55B56A;" d="M104,40h272v112H104V40z"/>
<g>
	<path style="fill:#FCF05A;" d="M144,128h-16V64h64v16h-48V128z"/>
	<path style="fill:#FCF05A;" d="M352,128h-16V80h-48V64h64V128z"/>
</g>
<g>
	<path style="fill:#238892;" d="M40,328c-4.418,0-8-3.582-8-8V216c0-4.418,3.582-8,8-8s8,3.582,8,8v104
		C48,324.418,44.418,328,40,328z"/>
	<path style="fill:#238892;" d="M40,384c-4.418,0-8-3.582-8-8v-24c0-4.418,3.582-8,8-8s8,3.582,8,8v24C48,380.418,44.418,384,40,384
		z"/>
</g>
<path id="SVGCleanerId_0_1_" d="M48,176h32v16H48V176z"/>
<path id="SVGCleanerId_1_1_" d="M96,176h32v16H96V176z"/>
<path id="SVGCleanerId_2_1_" d="M144,176h32v16h-32V176z"/>
<path id="SVGCleanerId_3_1_" d="M192,176h32v16h-32V176z"/>
<path id="SVGCleanerId_4_1_" d="M240,176h32v16h-32V176z"/>
<path id="SVGCleanerId_5_1_" d="M288,176h32v16h-32V176z"/>
<path id="SVGCleanerId_6_1_" d="M336,176h32v16h-32V176z"/>
<path id="SVGCleanerId_7_1_" d="M384,176h32v16h-32V176z"/>
<path id="SVGCleanerId_8_1_" d="M48,432h32v16H48V432z"/>
<path id="SVGCleanerId_9_1_" d="M96,432h32v16H96V432z"/>
<path id="SVGCleanerId_10_1_" d="M144,432h32v16h-32V432z"/>
<path id="SVGCleanerId_11_1_" d="M192,432h32v16h-32V432z"/>
<path id="SVGCleanerId_12_1_" d="M240,432h32v16h-32V432z"/>
<path id="SVGCleanerId_13_1_" d="M288,432h32v16h-32V432z"/>
<path id="SVGCleanerId_14_1_" d="M336,432h32v16h-32V432z"/>
<path id="SVGCleanerId_15_1_" d="M384,432h32v16h-32V432z"/>
<path id="SVGCleanerId_16_1_" d="M432,176h16v32h-16V176z"/>
<path id="SVGCleanerId_17_1_" d="M432,224h16v32h-16V224z"/>
<path id="SVGCleanerId_18_1_" d="M432,272h16v32h-16V272z"/>
<path id="SVGCleanerId_19_1_" d="M432,320h16v32h-16V320z"/>
<path id="SVGCleanerId_20_1_" d="M432,368.008h16v32h-16V368.008z"/>
<path id="SVGCleanerId_21_1_" d="M432,416.008h16v32h-16V416.008z"/>
<path d="M240,416c57.438,0,104-46.562,104-104s-46.562-104-104-104s-104,46.562-104,104C136.066,369.41,182.59,415.934,240,416z
	 M240,224c48.601,0,88,39.399,88,88s-39.399,88-88,88s-88-39.399-88-88C152.057,263.423,191.423,224.057,240,224z"/>
<path d="M416,0H128v32H96v32H48C21.501,64.026,0.026,85.501,0,112v320c0.026,26.499,21.501,47.974,48,48h432V64h-64V0z M144,16h256
	v128h-16V32H144V16z M112,48h256v96H112V48z M48,80h48v64H48c-17.673,0-32-14.327-32-32S30.327,80,48,80z M464,464H48
	c-17.673,0-32-14.327-32-32V147.752c0.144,0.12,0.312,0.216,0.456,0.336c1.87,1.636,3.862,3.125,5.96,4.456l1.016,0.616
	c2.167,1.309,4.435,2.44,6.784,3.384l0.984,0.36c2.468,0.941,5.01,1.674,7.6,2.192l0.712,0.104c2.8,0.519,5.64,0.786,8.488,0.8h416
	V464z M464,80v64h-48V80H464z"/>
<path d="M232,384h16v-16h32v-64h-64v-32h64v-16h-32v-16h-16v16h-32v64h64v32h-64v16h32V384z"/>
<path d="M128,128h16V80h48V64h-64V128z"/>
<path d="M288,80h48v48h16V64h-64V80z"/>
<path d="M40,328c4.418,0,8-3.582,8-8V216c0-4.418-3.582-8-8-8s-8,3.582-8,8v104C32,324.418,35.582,328,40,328z"/>
<path d="M48,352c0-4.418-3.582-8-8-8s-8,3.582-8,8v24c0,4.418,3.582,8,8,8s8-3.582,8-8V352z"/>
<g>
</g>
<g>
</g>
<g>
</g>
<g>
</g>
<g>
</g>
<g>
</g>
<g>
</g>
<g>
</g>
<g>
</g>
<g>
</g>
<g>
</g>
<g>
</g>
<g>
</g>
<g>
</g>
<g>
</g>
</svg>
