<?xml version="1.0" encoding="iso-8859-1"?>
<!-- Generator: Adobe Illustrator 19.0.0, SVG Export Plug-In . SVG Version: 6.00 Build 0)  -->
<svg version="1.1" id="Capa_1" xmlns="http://www.w3.org/2000/svg" xmlns:xlink="http://www.w3.org/1999/xlink" x="0px" y="0px"
	 viewBox="0 0 512 512" style="enable-background:new 0 0 512 512;" xml:space="preserve">
<g>
	<g>
		<g>
			<path d="M32,32h320v48h32V16c0-8.837-7.163-16-16-16H16C7.163,0,0,7.163,0,16v352c0,8.837,7.163,16,16,16h64v-32H32V32z"/>
			<path d="M320,128c-106.039,0-192,85.961-192,192s85.961,192,192,192s192-85.961,192-192S426.039,128,320,128z M320,480
				c-88.366,0-160-71.634-160-160s71.634-160,160-160s160,71.634,160,160S408.366,480,320,480z"/>
		</g>
	</g>
</g>
<g>
</g>
<g>
</g>
<g>
</g>
<g>
</g>
<g>
</g>
<g>
</g>
<g>
</g>
<g>
</g>
<g>
</g>
<g>
</g>
<g>
</g>
<g>
</g>
<g>
</g>
<g>
</g>
<g>
</g>
</svg>
